<?xml version="1.0" encoding="UTF-8" standalone="no"?>
<!DOCTYPE svg PUBLIC "-//W3C//DTD SVG 1.1//EN"
 "http://www.w3.org/Graphics/SVG/1.1/DTD/svg11.dtd">
<!-- Generated by graphviz version 5.0.0 (20220707.1540)
 -->
<!-- Title: dependencies Pages: 1 -->
<svg width="916pt" height="247pt"
 viewBox="0.00 0.00 916.00 246.80" xmlns="http://www.w3.org/2000/svg" xmlns:xlink="http://www.w3.org/1999/xlink">
<g id="graph0" class="graph" transform="scale(1 1) rotate(0) translate(4 242.8)">
<title>dependencies</title>
<polygon fill="white" stroke="transparent" points="-4,4 -4,-242.8 912,-242.8 912,4 -4,4"/>
<text text-anchor="middle" x="454" y="-8.2" font-family="sans-serif" font-size="14.00">dependencies</text>
<g id="clust1" class="cluster">
<title>cluster_AppModule</title>
<polygon fill="none" stroke="black" stroke-dasharray="1,5" points="8,-32.8 8,-230.8 900,-230.8 900,-32.8 8,-32.8"/>
</g>
<g id="clust7" class="cluster">
<title>cluster_AppModule_imports</title>
<polygon fill="none" stroke="black" points="584,-40.8 584,-92.8 892,-92.8 892,-40.8 584,-40.8"/>
</g>
<g id="clust9" class="cluster">
<title>cluster_AppModule_bootstrap</title>
<polygon fill="none" stroke="black" points="380,-170.8 380,-222.8 504,-222.8 504,-170.8 380,-170.8"/>
</g>
<g id="clust2" class="cluster">
<title>cluster_AppModule_declarations</title>
<polygon fill="none" stroke="black" points="16,-40.8 16,-92.8 576,-92.8 576,-40.8 16,-40.8"/>
</g>
<!-- AppComponent -->
<g id="node1" class="node">
<title>AppComponent</title>
<polygon fill="#ffffb3" stroke="black" points="567.94,-84.8 462.06,-84.8 462.06,-48.8 567.94,-48.8 567.94,-84.8"/>
<text text-anchor="middle" x="515" y="-62.6" font-family="Times,serif" font-size="14.00">AppComponent</text>
</g>
<!-- AppModule -->
<g id="node5" class="node">
<title>AppModule</title>
<polygon fill="#8dd3c7" stroke="black" points="483.66,-149.8 480.66,-153.8 459.66,-153.8 456.66,-149.8 400.34,-149.8 400.34,-113.8 483.66,-113.8 483.66,-149.8"/>
<text text-anchor="middle" x="442" y="-127.6" font-family="Times,serif" font-size="14.00">AppModule</text>
</g>
<!-- AppComponent&#45;&gt;AppModule -->
<g id="edge1" class="edge">
<title>AppComponent&#45;&gt;AppModule</title>
<path fill="none" stroke="black" d="M473.06,-84.91C473.06,-84.91 473.06,-103.79 473.06,-103.79"/>
<polygon fill="black" stroke="black" points="469.56,-103.79 473.06,-113.79 476.56,-103.79 469.56,-103.79"/>
</g>
<!-- DestinationsComponent -->
<g id="node2" class="node">
<title>DestinationsComponent</title>
<polygon fill="#ffffb3" stroke="black" points="444.82,-84.8 293.18,-84.8 293.18,-48.8 444.82,-48.8 444.82,-84.8"/>
<text text-anchor="middle" x="369" y="-62.6" font-family="Times,serif" font-size="14.00">DestinationsComponent</text>
</g>
<!-- DestinationsComponent&#45;&gt;AppModule -->
<g id="edge2" class="edge">
<title>DestinationsComponent&#45;&gt;AppModule</title>
<path fill="none" stroke="black" d="M422.42,-84.91C422.42,-84.91 422.42,-103.79 422.42,-103.79"/>
<polygon fill="black" stroke="black" points="418.92,-103.79 422.42,-113.79 425.92,-103.79 418.92,-103.79"/>
</g>
<!-- LogoComponent -->
<g id="node3" class="node">
<title>LogoComponent</title>
<polygon fill="#ffffb3" stroke="black" points="275.38,-84.8 164.62,-84.8 164.62,-48.8 275.38,-48.8 275.38,-84.8"/>
<text text-anchor="middle" x="220" y="-62.6" font-family="Times,serif" font-size="14.00">LogoComponent</text>
</g>
<!-- LogoComponent&#45;&gt;AppModule -->
<g id="edge3" class="edge">
<title>LogoComponent&#45;&gt;AppModule</title>
<path fill="none" stroke="black" d="M220,-84.82C220,-102.17 220,-125.8 220,-125.8 220,-125.8 390.24,-125.8 390.24,-125.8"/>
<polygon fill="black" stroke="black" points="390.24,-129.3 400.24,-125.8 390.24,-122.3 390.24,-129.3"/>
</g>
<!-- TicketsComponent -->
<g id="node4" class="node">
<title>TicketsComponent</title>
<polygon fill="#ffffb3" stroke="black" points="146.04,-84.8 23.96,-84.8 23.96,-48.8 146.04,-48.8 146.04,-84.8"/>
<text text-anchor="middle" x="85" y="-62.6" font-family="Times,serif" font-size="14.00">TicketsComponent</text>
</g>
<!-- TicketsComponent&#45;&gt;AppModule -->
<g id="edge4" class="edge">
<title>TicketsComponent&#45;&gt;AppModule</title>
<path fill="none" stroke="black" d="M85,-85.08C85,-106.12 85,-137.8 85,-137.8 85,-137.8 390,-137.8 390,-137.8"/>
<polygon fill="black" stroke="black" points="390,-141.3 400,-137.8 390,-134.3 390,-141.3"/>
</g>
<!-- AppComponent  -->
<g id="node8" class="node">
<title>AppComponent </title>
<polygon fill="#80b1d3" stroke="black" points="496.44,-214.8 387.56,-214.8 387.56,-178.8 496.44,-178.8 496.44,-214.8"/>
<text text-anchor="middle" x="442" y="-192.6" font-family="Times,serif" font-size="14.00">AppComponent </text>
</g>
<!-- AppModule&#45;&gt;AppComponent  -->
<g id="edge7" class="edge">
<title>AppModule&#45;&gt;AppComponent </title>
<path fill="none" stroke="black" stroke-dasharray="1,5" d="M442,-149.91C442,-149.91 442,-168.79 442,-168.79"/>
<polygon fill="black" stroke="black" points="438.5,-168.79 442,-178.79 445.5,-168.79 438.5,-168.79"/>
</g>
<!-- AppRoutingModule -->
<g id="node6" class="node">
<title>AppRoutingModule</title>
<polygon fill="#8dd3c7" stroke="black" points="884.28,-84.8 881.28,-88.8 860.28,-88.8 857.28,-84.8 755.72,-84.8 755.72,-48.8 884.28,-48.8 884.28,-84.8"/>
<text text-anchor="middle" x="820" y="-62.6" font-family="Times,serif" font-size="14.00">AppRoutingModule</text>
</g>
<!-- AppRoutingModule&#45;&gt;AppModule -->
<g id="edge5" class="edge">
<title>AppRoutingModule&#45;&gt;AppModule</title>
<path fill="none" stroke="black" d="M820,-85.08C820,-106.12 820,-137.8 820,-137.8 820,-137.8 493.9,-137.8 493.9,-137.8"/>
<polygon fill="black" stroke="black" points="493.9,-134.3 483.9,-137.8 493.9,-141.3 493.9,-134.3"/>
</g>
<!-- SharedMaterialModule -->
<g id="node7" class="node">
<title>SharedMaterialModule</title>
<polygon fill="#8dd3c7" stroke="black" points="737.85,-84.8 734.85,-88.8 713.85,-88.8 710.85,-84.8 592.15,-84.8 592.15,-48.8 737.85,-48.8 737.85,-84.8"/>
<text text-anchor="middle" x="665" y="-62.6" font-family="Times,serif" font-size="14.00">SharedMaterialModule</text>
</g>
<!-- SharedMaterialModule&#45;&gt;AppModule -->
<g id="edge6" class="edge">
<title>SharedMaterialModule&#45;&gt;AppModule</title>
<path fill="none" stroke="black" d="M665,-84.82C665,-102.17 665,-125.8 665,-125.8 665,-125.8 493.68,-125.8 493.68,-125.8"/>
<polygon fill="black" stroke="black" points="493.68,-122.3 483.68,-125.8 493.68,-129.3 493.68,-122.3"/>
</g>
</g>
</svg>
