<?xml version="1.0" encoding="UTF-8" standalone="no"?>
<!DOCTYPE svg PUBLIC "-//W3C//DTD SVG 1.1//EN"
 "http://www.w3.org/Graphics/SVG/1.1/DTD/svg11.dtd">
<!-- Generated by graphviz version 5.0.0 (20220707.1540)
 -->
<!-- Title: dependencies Pages: 1 -->
<svg width="1244pt" height="247pt"
 viewBox="0.00 0.00 1244.00 246.80" xmlns="http://www.w3.org/2000/svg" xmlns:xlink="http://www.w3.org/1999/xlink">
<g id="graph0" class="graph" transform="scale(1 1) rotate(0) translate(4 242.8)">
<title>dependencies</title>
<polygon fill="white" stroke="transparent" points="-4,4 -4,-242.8 1240,-242.8 1240,4 -4,4"/>
<text text-anchor="middle" x="618" y="-8.2" font-family="sans-serif" font-size="14.00">dependencies</text>
<g id="clust1" class="cluster">
<title>cluster_AdminModule</title>
<polygon fill="none" stroke="black" stroke-dasharray="1,5" points="8,-32.8 8,-157.8 328,-157.8 328,-32.8 8,-32.8"/>
</g>
<g id="clust2" class="cluster">
<title>cluster_AdminModule_declarations</title>
<polygon fill="none" stroke="black" points="184,-40.8 184,-92.8 320,-92.8 320,-40.8 184,-40.8"/>
</g>
<g id="clust4" class="cluster">
<title>cluster_AdminModule_imports</title>
<polygon fill="none" stroke="black" points="16,-40.8 16,-92.8 176,-92.8 176,-40.8 16,-40.8"/>
</g>
<g id="clust14" class="cluster">
<title>cluster_AppModule</title>
<polygon fill="none" stroke="black" stroke-dasharray="1,5" points="336,-32.8 336,-230.8 1228,-230.8 1228,-32.8 336,-32.8"/>
</g>
<g id="clust15" class="cluster">
<title>cluster_AppModule_declarations</title>
<polygon fill="none" stroke="black" points="660,-40.8 660,-92.8 1220,-92.8 1220,-40.8 660,-40.8"/>
</g>
<g id="clust20" class="cluster">
<title>cluster_AppModule_imports</title>
<polygon fill="none" stroke="black" points="344,-40.8 344,-92.8 652,-92.8 652,-40.8 344,-40.8"/>
</g>
<g id="clust22" class="cluster">
<title>cluster_AppModule_bootstrap</title>
<polygon fill="none" stroke="black" points="734,-170.8 734,-222.8 858,-222.8 858,-170.8 734,-170.8"/>
</g>
<!-- AdminComponent -->
<g id="node1" class="node">
<title>AdminComponent</title>
<polygon fill="#ffffb3" stroke="black" points="312.22,-84.8 191.78,-84.8 191.78,-48.8 312.22,-48.8 312.22,-84.8"/>
<text text-anchor="middle" x="252" y="-62.6" font-family="Times,serif" font-size="14.00">AdminComponent</text>
</g>
<!-- AdminModule -->
<g id="node2" class="node">
<title>AdminModule</title>
<polygon fill="#8dd3c7" stroke="black" points="223.44,-149.8 220.44,-153.8 199.44,-153.8 196.44,-149.8 124.56,-149.8 124.56,-113.8 223.44,-113.8 223.44,-149.8"/>
<text text-anchor="middle" x="174" y="-127.6" font-family="Times,serif" font-size="14.00">AdminModule</text>
</g>
<!-- AdminComponent&#45;&gt;AdminModule -->
<g id="edge1" class="edge">
<title>AdminComponent&#45;&gt;AdminModule</title>
<path fill="none" stroke="black" d="M207.56,-84.91C207.56,-84.91 207.56,-103.79 207.56,-103.79"/>
<polygon fill="black" stroke="black" points="204.06,-103.79 207.56,-113.79 211.06,-103.79 204.06,-103.79"/>
</g>
<!-- AdminRoutingModule -->
<g id="node3" class="node">
<title>AdminRoutingModule</title>
<polygon fill="#8dd3c7" stroke="black" points="167.56,-84.8 164.56,-88.8 143.56,-88.8 140.56,-84.8 24.44,-84.8 24.44,-48.8 167.56,-48.8 167.56,-84.8"/>
<text text-anchor="middle" x="96" y="-62.6" font-family="Times,serif" font-size="14.00">AdminRoutingModule</text>
</g>
<!-- AdminRoutingModule&#45;&gt;AdminModule -->
<g id="edge2" class="edge">
<title>AdminRoutingModule&#45;&gt;AdminModule</title>
<path fill="none" stroke="black" d="M146.28,-84.91C146.28,-84.91 146.28,-103.79 146.28,-103.79"/>
<polygon fill="black" stroke="black" points="142.78,-103.79 146.28,-113.79 149.78,-103.79 142.78,-103.79"/>
</g>
<!-- AppComponent -->
<g id="node4" class="node">
<title>AppComponent</title>
<polygon fill="#ffffb3" stroke="black" points="1211.94,-84.8 1106.06,-84.8 1106.06,-48.8 1211.94,-48.8 1211.94,-84.8"/>
<text text-anchor="middle" x="1159" y="-62.6" font-family="Times,serif" font-size="14.00">AppComponent</text>
</g>
<!-- AppModule -->
<g id="node8" class="node">
<title>AppModule</title>
<polygon fill="#8dd3c7" stroke="black" points="837.66,-149.8 834.66,-153.8 813.66,-153.8 810.66,-149.8 754.34,-149.8 754.34,-113.8 837.66,-113.8 837.66,-149.8"/>
<text text-anchor="middle" x="796" y="-127.6" font-family="Times,serif" font-size="14.00">AppModule</text>
</g>
<!-- AppComponent&#45;&gt;AppModule -->
<g id="edge3" class="edge">
<title>AppComponent&#45;&gt;AppModule</title>
<path fill="none" stroke="black" d="M1159,-85.08C1159,-106.12 1159,-137.8 1159,-137.8 1159,-137.8 848,-137.8 848,-137.8"/>
<polygon fill="black" stroke="black" points="848,-134.3 838,-137.8 848,-141.3 848,-134.3"/>
</g>
<!-- DestinationsComponent -->
<g id="node5" class="node">
<title>DestinationsComponent</title>
<polygon fill="#ffffb3" stroke="black" points="1088.82,-84.8 937.18,-84.8 937.18,-48.8 1088.82,-48.8 1088.82,-84.8"/>
<text text-anchor="middle" x="1013" y="-62.6" font-family="Times,serif" font-size="14.00">DestinationsComponent</text>
</g>
<!-- DestinationsComponent&#45;&gt;AppModule -->
<g id="edge4" class="edge">
<title>DestinationsComponent&#45;&gt;AppModule</title>
<path fill="none" stroke="black" d="M1013,-84.82C1013,-102.17 1013,-125.8 1013,-125.8 1013,-125.8 847.84,-125.8 847.84,-125.8"/>
<polygon fill="black" stroke="black" points="847.84,-122.3 837.84,-125.8 847.84,-129.3 847.84,-122.3"/>
</g>
<!-- LogoComponent -->
<g id="node6" class="node">
<title>LogoComponent</title>
<polygon fill="#ffffb3" stroke="black" points="919.38,-84.8 808.62,-84.8 808.62,-48.8 919.38,-48.8 919.38,-84.8"/>
<text text-anchor="middle" x="864" y="-62.6" font-family="Times,serif" font-size="14.00">LogoComponent</text>
</g>
<!-- LogoComponent&#45;&gt;AppModule -->
<g id="edge5" class="edge">
<title>LogoComponent&#45;&gt;AppModule</title>
<path fill="none" stroke="black" d="M823.19,-84.91C823.19,-84.91 823.19,-103.79 823.19,-103.79"/>
<polygon fill="black" stroke="black" points="819.69,-103.79 823.19,-113.79 826.69,-103.79 819.69,-103.79"/>
</g>
<!-- TicketsComponent -->
<g id="node7" class="node">
<title>TicketsComponent</title>
<polygon fill="#ffffb3" stroke="black" points="790.04,-84.8 667.96,-84.8 667.96,-48.8 790.04,-48.8 790.04,-84.8"/>
<text text-anchor="middle" x="729" y="-62.6" font-family="Times,serif" font-size="14.00">TicketsComponent</text>
</g>
<!-- TicketsComponent&#45;&gt;AppModule -->
<g id="edge6" class="edge">
<title>TicketsComponent&#45;&gt;AppModule</title>
<path fill="none" stroke="black" d="M772.22,-84.91C772.22,-84.91 772.22,-103.79 772.22,-103.79"/>
<polygon fill="black" stroke="black" points="768.72,-103.79 772.22,-113.79 775.72,-103.79 768.72,-103.79"/>
</g>
<!-- AppComponent  -->
<g id="node11" class="node">
<title>AppComponent </title>
<polygon fill="#80b1d3" stroke="black" points="850.44,-214.8 741.56,-214.8 741.56,-178.8 850.44,-178.8 850.44,-214.8"/>
<text text-anchor="middle" x="796" y="-192.6" font-family="Times,serif" font-size="14.00">AppComponent </text>
</g>
<!-- AppModule&#45;&gt;AppComponent  -->
<g id="edge9" class="edge">
<title>AppModule&#45;&gt;AppComponent </title>
<path fill="none" stroke="black" stroke-dasharray="1,5" d="M796,-149.91C796,-149.91 796,-168.79 796,-168.79"/>
<polygon fill="black" stroke="black" points="792.5,-168.79 796,-178.79 799.5,-168.79 792.5,-168.79"/>
</g>
<!-- AppRoutingModule -->
<g id="node9" class="node">
<title>AppRoutingModule</title>
<polygon fill="#8dd3c7" stroke="black" points="644.28,-84.8 641.28,-88.8 620.28,-88.8 617.28,-84.8 515.72,-84.8 515.72,-48.8 644.28,-48.8 644.28,-84.8"/>
<text text-anchor="middle" x="580" y="-62.6" font-family="Times,serif" font-size="14.00">AppRoutingModule</text>
</g>
<!-- AppRoutingModule&#45;&gt;AppModule -->
<g id="edge7" class="edge">
<title>AppRoutingModule&#45;&gt;AppModule</title>
<path fill="none" stroke="black" d="M580,-84.82C580,-102.17 580,-125.8 580,-125.8 580,-125.8 744.1,-125.8 744.1,-125.8"/>
<polygon fill="black" stroke="black" points="744.1,-129.3 754.1,-125.8 744.1,-122.3 744.1,-129.3"/>
</g>
<!-- SharedMaterialModule -->
<g id="node10" class="node">
<title>SharedMaterialModule</title>
<polygon fill="#8dd3c7" stroke="black" points="497.85,-84.8 494.85,-88.8 473.85,-88.8 470.85,-84.8 352.15,-84.8 352.15,-48.8 497.85,-48.8 497.85,-84.8"/>
<text text-anchor="middle" x="425" y="-62.6" font-family="Times,serif" font-size="14.00">SharedMaterialModule</text>
</g>
<!-- SharedMaterialModule&#45;&gt;AppModule -->
<g id="edge8" class="edge">
<title>SharedMaterialModule&#45;&gt;AppModule</title>
<path fill="none" stroke="black" d="M425,-85.08C425,-106.12 425,-137.8 425,-137.8 425,-137.8 744.16,-137.8 744.16,-137.8"/>
<polygon fill="black" stroke="black" points="744.16,-141.3 754.16,-137.8 744.16,-134.3 744.16,-141.3"/>
</g>
</g>
</svg>
